Coordinates
version=1
nRows=37
nColumns=11
inDegrees=yes

Units are S.I. units (second, meters, Newtons, ...)
If the header above contains a line with 'inDegrees', this indicates whether rotational values are in degrees (yes) or radians (no).

endheader
time	pelvis_tilt	pelvis_tx	pelvis_ty	hip_flexion_l	hip_flexion_r	knee_angle_l	knee_angle_r	ankle_angle_l	ankle_angle_r	lumbar
     84.80000000	     21.15155370	     -0.04856877	      0.72933190	     53.87579656	     53.87579656	    -79.60897568	    -79.60897568	      4.18802028	      4.18802028	    -36.79745534
     84.81000000	     21.13045775	     -0.04859107	      0.72931437	     53.89483602	     53.89483602	    -79.59927111	    -79.59927111	      4.18931788	      4.18931788	    -36.84200754
     84.82000000	     21.10394660	     -0.04860422	      0.72929061	     53.91748258	     53.91748258	    -79.58493005	    -79.58493005	      4.19366096	      4.19366096	    -36.89062432
     84.83000000	     21.07427188	     -0.04860034	      0.72928041	     53.93915488	     53.93915488	    -79.57136199	    -79.57136199	      4.19982277	      4.19982277	    -36.93939289
     84.84000000	     21.03907584	     -0.04859898	      0.72927043	     53.96558915	     53.96558915	    -79.55244108	    -79.55244108	      4.21258759	      4.21258759	    -36.98984305
     84.85000000	     21.00138188	     -0.04857058	      0.72926647	     53.99253453	     53.99253453	    -79.53689832	    -79.53689832	      4.22765267	      4.22765267	    -37.04576581
     84.86000000	     20.90726926	     -0.04845211	      0.72914007	     54.08294096	     54.08294096	    -79.53946652	    -79.53946652	      4.43429813	      4.43429813	    -37.03373179
     84.87000000	     20.87085164	     -0.04840352	      0.72915707	     54.10777797	     54.10777797	    -79.52905802	    -79.52905802	      4.44005023	      4.44005023	    -37.10887118
     84.88000000	     20.82910640	     -0.04834830	      0.72918321	     54.13517157	     54.13517157	    -79.51558254	    -79.51558254	      4.45000829	      4.45000829	    -37.18835964
     84.89000000	     20.78218623	     -0.04828256	      0.72921560	     54.16570946	     54.16570946	    -79.50050385	    -79.50050385	      4.46426441	      4.46426441	    -37.27233133
     84.90000000	     20.72976456	     -0.04820454	      0.72925251	     54.19997219	     54.19997219	    -79.48436608	    -79.48436608	      4.48289547	      4.48289547	    -37.36063979
     84.91000000	     20.60752531	     -0.04800153	      0.72912339	     54.31560101	     54.31560101	    -79.49814449	    -79.49814449	      4.79495726	      4.79495726	    -37.36330371
     84.92000000	     20.55054477	     -0.04789628	      0.72918150	     54.35030932	     54.35030932	    -79.48183955	    -79.48183955	      4.80021239	      4.80021239	    -37.46720566
     84.93000000	     20.48618741	     -0.04777300	      0.72924249	     54.39048157	     54.39048157	    -79.46221423	    -79.46221423	      4.80958800	      4.80958800	    -37.57512116
     84.94000000	     20.41387087	     -0.04763152	      0.72930483	     54.43649981	     54.43649981	    -79.44007068	    -79.44007068	      4.82335673	      4.82335673	    -37.68578799
     84.95000000	     20.20836518	     -0.04734280	      0.72907378	     54.63845058	     54.63845058	    -79.44080334	    -79.44080334	      5.03131958	      5.03131958	    -37.63640433
     84.96000000	     20.13456328	     -0.04715607	      0.72915661	     54.68448813	     54.68448813	    -79.42423094	    -79.42423094	      5.03866123	      5.03866123	    -37.76736316
     84.97000000	     20.04986673	     -0.04695500	      0.72923695	     54.73848566	     54.73848566	    -79.40169442	    -79.40169442	      5.05087690	      5.05087690	    -37.90047549
     84.98000000	     19.95417816	     -0.04673377	      0.72931147	     54.80172869	     54.80172869	    -79.37616630	    -79.37616630	      5.06843497	      5.06843497	    -38.03471649
     84.99000000	     19.65124994	     -0.04629919	      0.72890881	     55.11593036	     55.11593036	    -79.39345609	    -79.39345609	      5.29384311	      5.29384311	    -37.91136230
     85.00000000	     19.55932411	     -0.04603618	      0.72900926	     55.17459844	     55.17459844	    -79.37558517	    -79.37558517	      5.30209507	      5.30209507	    -38.07497184
     85.01000000	     19.45479043	     -0.04575685	      0.72910078	     55.24345687	     55.24345687	    -79.35253391	    -79.35253391	      5.31491166	      5.31491166	    -38.24001827
     85.02000000	     19.33762679	     -0.04545709	      0.72918030	     55.32415655	     55.32415655	    -79.32699875	    -79.32699875	      5.33228384	      5.33228384	    -38.40643629
     85.03000000	     18.96324287	     -0.04490809	      0.72866664	     55.72059564	     55.72059564	    -79.35402892	    -79.35402892	      5.52354650	      5.52354650	    -38.24970651
     85.04000000	     18.85117823	     -0.04457553	      0.72876930	     55.79482575	     55.79482575	    -79.33365772	    -79.33365772	      5.53145058	      5.53145058	    -38.45365927
     85.05000000	     18.72520859	     -0.04421547	      0.72886831	     55.88039617	     55.88039617	    -79.30774210	    -79.30774210	      5.54267803	      5.54267803	    -38.65668893
     85.06000000	     18.35912383	     -0.04365595	      0.72841966	     56.25982526	     56.25982526	    -79.32099088	    -79.32099088	      5.64602430	      5.64602430	    -38.56603985
     85.07000000	     18.23090507	     -0.04325757	      0.72853471	     56.34539860	     56.34539860	    -79.29654784	    -79.29654784	      5.65329252	      5.65329252	    -38.80068039
     85.08000000	     18.08764593	     -0.04284001	      0.72864461	     56.44370711	     56.44370711	    -79.26618196	    -79.26618196	      5.66294459	      5.66294459	    -39.03489449
     85.09000000	     17.67767112	     -0.04223160	      0.72814822	     56.86665420	     56.86665420	    -79.27034376	    -79.27034376	      5.72082727	      5.72082727	    -38.94636710
     85.10000000	     17.53267703	     -0.04177685	      0.72827416	     56.96533395	     56.96533395	    -79.24339242	    -79.24339242	      5.72790706	      5.72790706	    -39.21558024
     85.11000000	     17.37039937	     -0.04130255	      0.72839577	     57.07685513	     57.07685513	    -79.20896821	    -79.20896821	      5.73702719	      5.73702719	    -39.48066630
     85.12000000	     16.90783114	     -0.04064127	      0.72782352	     57.55514862	     57.55514862	    -79.20912451	    -79.20912451	      5.77212975	      5.77212975	    -39.39003990
     85.13000000	     16.74365662	     -0.04012899	      0.72795750	     57.66719421	     57.66719421	    -79.17864574	    -79.17864574	      5.77977291	      5.77977291	    -39.69648866
     85.14000000	     16.56052400	     -0.03958780	      0.72808807	     57.79229336	     57.79229336	    -79.14036256	    -79.14036256	      5.78963324	      5.78963324	    -39.99646928
     85.15000000	     16.05250583	     -0.03885014	      0.72746757	     58.31278887	     58.31278887	    -79.13751221	    -79.13751221	      5.82618099	      5.82618099	    -39.91024925
     85.16000000	     15.86901497	     -0.03825235	      0.72762509	     58.43502157	     58.43502157	    -79.10554469	    -79.10554469	      5.83472340	      5.83472340	    -40.24847812
